<svg width="140.000000" height="23.000000" viewBox="0 0 140 23" fill="none" xmlns="http://www.w3.org/2000/svg" xmlns:xlink="http://www.w3.org/1999/xlink">
	<desc>
			Created with Pixso.
	</desc>
	<defs/>
	<circle cx="8.500000" cy="11.000000" r="8.000000" stroke="#FFFFFF" stroke-opacity="1.000000" stroke-width="1.000000"/>
	<path d="M35.53 4.8C35.53 5.3 35.1 5.71 34.58 5.71C34.06 5.71 33.64 5.3 33.64 4.8C33.64 4.31 34.06 3.89 34.58 3.89C35.1 3.89 35.53 4.31 35.53 4.8ZM67.71 3.95L68.98 3.95L68.98 18.5L67.71 18.5L67.71 3.95ZM27.3 7.44C29.29 7.44 30.46 8.4 30.99 9.98L29.84 10.31C29.5 9.33 28.77 8.55 27.3 8.55C25.83 8.55 24.77 9.33 24.77 10.43C24.77 11.38 25.4 11.93 26.76 12.26L28.41 12.67C30.23 13.12 31.15 14.09 31.15 15.55C31.15 17.4 29.5 18.72 27.1 18.72C24.96 18.72 23.52 17.73 23.14 15.92L24.35 15.62C24.66 16.91 25.59 17.59 27.08 17.59C28.76 17.59 29.84 16.74 29.84 15.6C29.84 14.73 29.27 14.12 28.07 13.83L26.29 13.4C24.39 12.95 23.5 11.95 23.5 10.49C23.5 8.7 25.1 7.44 27.3 7.44ZM56.98 22.59L55.72 22.59L55.72 7.59L56.94 7.59L56.94 9.67L57.09 9.67C57.54 8.69 58.42 7.44 60.43 7.44C63.12 7.44 64.94 9.7 64.94 13.07C64.94 16.45 63.11 18.72 60.45 18.72C58.47 18.72 57.53 17.47 57.09 16.47L56.98 16.47L56.98 22.59ZM80.88 16.17C80.38 17.54 78.91 18.72 76.72 18.72C73.67 18.72 71.75 16.41 71.75 13.1C71.75 9.8 73.71 7.44 76.53 7.44C78.9 7.44 81.15 9.15 81.15 12.79L81.15 13.42L73.02 13.42C73.08 15.94 74.49 17.56 76.72 17.56C78.27 17.56 79.26 16.76 79.68 15.78L80.88 16.17ZM39.82 18.5L38.56 18.5L38.56 7.59L39.78 7.59L39.78 9.26L39.9 9.26C40.33 8.13 41.4 7.45 42.83 7.45C44.33 7.45 45.29 8.19 45.78 9.43L45.87 9.43C46.36 8.22 47.51 7.45 49.1 7.45C51.12 7.45 52.38 8.74 52.38 11.19L52.38 18.5L51.11 18.5L51.11 11.19C51.11 9.47 50.16 8.6 48.71 8.6C47.05 8.6 46.11 9.75 46.11 11.31L46.11 18.5L44.82 18.5L44.82 11.07C44.82 9.59 43.95 8.6 42.46 8.6C40.95 8.6 39.82 9.81 39.82 11.51L39.82 18.5ZM35.2 18.5L33.94 18.5L33.94 7.59L35.2 7.59L35.2 18.5ZM60.3 8.59C58.16 8.59 56.97 10.43 56.97 13.05C56.97 15.68 58.19 17.56 60.3 17.56C62.47 17.56 63.67 15.59 63.67 13.05C63.67 10.53 62.49 8.59 60.3 8.59ZM76.53 8.59C74.54 8.59 73.17 10.27 73.03 12.3L79.86 12.3C79.86 10.2 78.49 8.59 76.53 8.59Z" fill="#FFFFFF" fill-opacity="1.000000" fill-rule="evenodd"/>
	<rect x="86.500000" y="3.000000" rx="8.000000" width="31.000000" height="16.000000" stroke="#FFFFFF" stroke-opacity="1.000000" stroke-width="1.000000"/>
	<circle cx="131.500000" cy="11.000000" r="8.000000" stroke="#FFFFFF" stroke-opacity="1.000000" stroke-width="1.000000"/>
</svg>
