<svg width="141.000000" height="23.000000" viewBox="0 0 141 23" fill="none" xmlns="http://www.w3.org/2000/svg" xmlns:xlink="http://www.w3.org/1999/xlink">
	<desc>
			Created with Pixso.
	</desc>
	<defs/>
	<circle cx="8.500000" cy="11.000000" r="8.000000" stroke="#333333" stroke-opacity="1.000000" stroke-width="1.000000"/>
	<path d="M67.25 17.96Q67.97 18.66 69.7 18.7L69.96 17.13Q69.52 17.07 69.21 16.99Q68.92 16.89 68.73 16.72Q68.55 16.54 68.47 16.24Q68.39 15.94 68.39 15.48L68.39 2.98L66.53 3.29L66.53 15.78Q66.53 17.25 67.25 17.96ZM32.92 6.11Q33.15 6.21 33.43 6.21Q33.72 6.21 33.95 6.11Q34.13 6.03 34.28 5.89Q34.38 5.8 34.45 5.69Q34.64 5.4 34.64 4.99Q34.64 4.59 34.45 4.31Q34.38 4.2 34.28 4.11Q34.13 3.96 33.94 3.88Q33.71 3.77 33.43 3.77Q33.16 3.77 32.93 3.88Q32.74 3.96 32.58 4.11Q32.49 4.2 32.41 4.31Q32.23 4.59 32.23 4.99Q32.23 5.4 32.42 5.69Q32.49 5.8 32.58 5.89Q32.74 6.03 32.92 6.11ZM27.7 16.86Q27.16 17.16 26.01 17.16Q24.86 17.16 24.15 16.92Q23.46 16.67 23.13 16.56L22.8 18.15Q23.07 18.28 23.86 18.5Q24.64 18.73 26.01 18.73Q28 18.73 29.07 18Q29.48 17.71 29.73 17.33Q30.13 16.7 30.13 15.81Q30.13 15.08 29.91 14.57Q29.78 14.26 29.58 14Q29.45 13.84 29.29 13.7Q28.87 13.33 28.29 13.07Q27.71 12.8 26.98 12.51Q26.41 12.31 26.01 12.14Q25.61 11.96 25.34 11.75Q25.08 11.54 24.94 11.28Q24.82 11.01 24.82 10.67Q24.82 10.34 24.97 10.09Q25.11 9.86 25.39 9.71Q25.97 9.39 26.76 9.39Q27.65 9.39 28.29 9.56Q28.93 9.74 29.24 9.9L29.57 8.29Q29.42 8.24 29.12 8.16Q28.84 8.08 28.46 8.01Q28.07 7.93 27.63 7.88Q27.2 7.84 26.76 7.84Q24.99 7.84 23.97 8.65Q23.54 8.99 23.29 9.43Q22.96 10.04 22.96 10.83Q22.96 11.54 23.2 12.02Q23.34 12.3 23.54 12.54Q23.68 12.7 23.84 12.84Q24.24 13.17 24.78 13.43Q25.33 13.68 25.94 13.91Q27.18 14.41 27.71 14.81Q27.97 15.01 28.11 15.27Q28.25 15.54 28.25 15.9Q28.25 16.26 28.09 16.51Q27.95 16.72 27.7 16.86ZM71.86 10.91Q71.46 11.94 71.46 13.31Q71.46 14.5 71.76 15.49Q72.04 16.37 72.58 17.04Q72.65 17.12 72.72 17.2Q73.35 17.91 74.35 18.32Q75.34 18.73 76.69 18.73Q77.77 18.73 78.62 18.53Q79.47 18.33 79.81 18.15L79.56 16.6Q79.21 16.76 78.55 16.93Q77.88 17.09 76.9 17.09Q75.16 17.09 74.34 16.25Q73.52 15.41 73.39 13.79L80.51 13.79Q80.53 13.64 80.53 13.45L80.53 13.13Q80.53 10.45 79.41 9.14Q79.16 8.84 78.85 8.61Q77.81 7.84 76.2 7.84Q75.89 7.84 75.6 7.87Q75.01 7.95 74.43 8.18Q74.14 8.29 73.87 8.45Q73.35 8.75 72.92 9.2Q72.26 9.88 71.86 10.91ZM39.27 8.06Q38.22 8.24 37.58 8.4L37.58 18.5L39.44 18.5L39.44 9.72Q39.52 9.7 39.75 9.66Q39.99 9.61 40.28 9.58Q40.57 9.55 40.89 9.54Q41.21 9.52 41.49 9.52Q42.16 9.52 42.59 9.73Q42.73 9.8 42.86 9.9Q43.1 10.09 43.27 10.37Q43.51 10.81 43.61 11.47Q43.71 12.13 43.71 13.06L43.71 18.5L45.57 18.5L45.57 12.66Q45.57 11.98 45.49 11.36Q45.41 10.74 45.26 10.21Q45.48 10.01 46.08 9.76Q46.69 9.52 47.64 9.52Q48.31 9.52 48.74 9.73Q48.89 9.8 49.02 9.9Q49.26 10.09 49.42 10.37Q49.68 10.81 49.76 11.47Q49.86 12.13 49.86 13.06L49.86 18.5L51.72 18.5L51.72 12.66Q51.72 11.62 51.57 10.74Q51.41 9.86 50.98 9.22Q50.88 9.06 50.75 8.92Q50.37 8.49 49.79 8.23Q49.04 7.87 47.84 7.87Q47.22 7.87 46.67 8.01Q46.14 8.13 45.7 8.3Q45.26 8.48 44.95 8.66Q44.66 8.84 44.52 8.93Q44.41 8.82 44.29 8.71Q43.9 8.36 43.37 8.15Q42.69 7.87 41.69 7.87Q40.32 7.87 39.27 8.06ZM63.64 15.5Q63.96 14.5 63.96 13.31Q63.96 12.05 63.59 11.04Q63.21 10.03 62.54 9.33Q62.43 9.22 62.31 9.12Q61.7 8.57 60.9 8.26Q59.93 7.87 58.74 7.87Q57.43 7.87 56.44 8.07Q55.46 8.26 54.8 8.42L54.8 22.2L56.66 22.2L56.66 18.04Q56.99 18.26 57.68 18.5Q58.38 18.73 59.27 18.73Q60.4 18.73 61.27 18.33Q61.8 18.09 62.23 17.72Q62.5 17.49 62.74 17.22Q63.34 16.49 63.64 15.5ZM32.52 18.5L34.38 18.5L34.38 8.09L32.52 8.09L32.52 18.5ZM78.1 10.4Q78.61 11.17 78.59 12.29L73.43 12.29Q73.44 12.21 73.45 12.14Q73.52 11.68 73.69 11.24Q73.87 10.72 74.21 10.33Q74.21 10.32 74.21 10.32Q74.3 10.22 74.38 10.13Q74.67 9.86 75.04 9.67Q75.53 9.41 76.18 9.41Q76.88 9.41 77.4 9.72Q77.72 9.92 77.96 10.22Q78.03 10.31 78.1 10.4ZM61.11 10.52Q62.01 11.49 62.01 13.31Q62.01 14.12 61.85 14.81Q61.7 15.5 61.33 16Q61.2 16.19 61.04 16.35Q60.76 16.62 60.4 16.81Q59.84 17.09 59.03 17.09Q58.27 17.09 57.63 16.83Q56.99 16.58 56.66 16.29L56.66 9.74Q56.94 9.66 57.4 9.6Q57.87 9.54 58.71 9.54Q59.74 9.54 60.49 10Q60.83 10.21 61.11 10.52Z" fill="#333333" fill-opacity="1.000000" fill-rule="evenodd"/>
	<rect x="87.500000" y="3.000000" rx="8.000000" width="31.000000" height="16.000000" stroke="#333333" stroke-opacity="1.000000" stroke-width="1.000000"/>
	<circle cx="132.500000" cy="11.000000" r="8.000000" stroke="#333333" stroke-opacity="1.000000" stroke-width="1.000000"/>
</svg>
